PathFileType	4	(X/Y/Z)	C:/Users/opensim2020/Desktop/walking_exp_matlab/subject01_walking13_straight_02.trc																																																																																																																												
DataRate	CameraRate	NumFrames	NumMarkers	Units	OrigDataRate	OrigDataStartFrame	OrigNumFrames																																																																																																																								
100	100	6	42	mm	100	1089	172																																																																																																																								
Frame#	Time	LFHD			RFHD			LBHD			RBHD			C7			T10			CLAV			STRN			RBAK			LSHO			LUPA			LELB			LFRM			LWRA			LWRB			LFIN			RSHO			RUPA			RELB			RFRM			RWRA			RWRB			RFIN			LASI			RASI			LPSI			RPSI			LTHI			LKNE			LTIB			LANK			LHEE			LTOE			RTHI			RKNE			RTIB			RANK			RHEE			RTOE			*39			*40			*41		
		X1	Y1	Z1	X2	Y2	Z2	X3	Y3	Z3	X4	Y4	Z4	X5	Y5	Z5	X6	Y6	Z6	X7	Y7	Z7	X8	Y8	Z8	X9	Y9	Z9	X10	Y10	Z10	X11	Y11	Z11	X12	Y12	Z12	X13	Y13	Z13	X14	Y14	Z14	X15	Y15	Z15	X16	Y16	Z16	X17	Y17	Z17	X18	Y18	Z18	X19	Y19	Z19	X20	Y20	Z20	X21	Y21	Z21	X22	Y22	Z22	X23	Y23	Z23	X24	Y24	Z24	X25	Y25	Z25	X26	Y26	Z26	X27	Y27	Z27	X28	Y28	Z28	X29	Y29	Z29	X30	Y30	Z30	X31	Y31	Z31	X32	Y32	Z32	X33	Y33	Z33	X34	Y34	Z34	X35	Y35	Z35	X36	Y36	Z36	X37	Y37	Z37	X38	Y38	Z38	X39	Y39	Z39	X40	Y40	Z40	X41	Y41	Z41	X42	Y42	Z42
																																																																																																																															
1	0	-1248.55676	1656.96106	-1520.68298	-1226.87891	1670.6825	-1410.7887	-1359.49768	1604.89868	-1499.4635	-1340.41089	1618.1958	-1382.78101	-1389.12378	1422.93811	-1443.98621	-1430.68945	1132.1178	-1412.12769	-1247.41479	1351.09949	-1445.82605	-1206.96387	1196.20984	-1441.94727	-1446.12244	1234.96069	-1351.01636	-1316.50842	1370.93091	-1604.85193	-1385.59741	1193.75208	-1674.82446	-1430.91321	1048.51697	-1665.72327	-1407.63831	933.92273	-1682.14758	-1341.31445	811.54108	-1658.59412	-1398.31274	812.51068	-1677.26282	-1365.23767	735.12225	-1684.8429	-1304.89526	1391.88928	-1293.48669	-1364.73108	1201.49463	-1178.44617	-1358.69275	1073.38416	-1163.62378	-1280.1687	973.07031	-1152.67603	-1165.26978	908.46057	-1202.34668	-1192.38257	887.69482	-1155.9718	-1120.35608	848.047	-1167.89258	-1254.93079	931.50488	-1520.67371	-1256.87305	918.76782	-1304.7533	-1443.06458	938.7489	-1467.53625	-1439.76038	933.99841	-1322.63513	-1219.5166	619.56494	-1593.92029	-1199.88318	484.17697	-1584.99597	-1238.85291	298.03485	-1602.86011	-1252.37036	77.12471	-1559.81104	-1291.25134	45.63499	-1503.69653	-1104.9657	39.80065	-1578.40881	-1316.33472	578.39526	-1249.4873	-1323.9043	420.72833	-1268.86475	-1479.15344	337.47137	-1259.88916	-1646.89026	216.26466	-1298.55359	-1689.84631	251.11572	-1345.59607	-1656.84705	71.48185	-1335.51892	-1242.76294	1701.58533	-1434.21216	-1972.96716	1023.91547	3102.00781	-2012.51782	1021.97052	3140.65381
2	0.01	-1236.73047	1657.43604	-1524.78955	-1215.05591	1671.8208	-1414.88696	-1347.57251	1605.21973	-1503.45581	-1328.69287	1619.22546	-1386.70349	-1376.88428	1424.02393	-1447.17297	-1419.31177	1133.26428	-1415.12183	-1235.49731	1351.81506	-1448.02344	-1195.49963	1196.74988	-1443.5127	-1434.95911	1236.64294	-1353.57275	-1303.50684	1371.34338	-1607.53931	-1369.42029	1193.39941	-1678.15979	-1413.63184	1047.78101	-1670.64404	-1388.28271	933.87469	-1687.70837	-1320.15564	812.21783	-1664.05359	-1376.90759	812.42236	-1683.40393	-1342.47058	735.84076	-1691.30518	-1293.16858	1392.90698	-1296.03467	-1354.86694	1203.01282	-1180.95898	-1350.30176	1074.85632	-1166.48621	-1273.61499	973.0957	-1154.05151	-1159.53796	906.19275	-1202.5033	-1187.49902	885.97003	-1156.27539	-1116.31702	844.78479	-1167.1272	-1243.96399	932.72168	-1523.34021	-1247.16309	919.41083	-1306.93079	-1432.19922	939.26581	-1469.86975	-1429.1853	932.98578	-1324.96509	-1213.24561	619.05206	-1595.53259	-1194.86853	483.51443	-1586.33984	-1236.63708	298.0502	-1602.74829	-1252.31616	77.32442	-1559.65186	-1291.12378	45.3188	-1503.35217	-1104.8905	39.65568	-1578.33801	-1296.49243	578.58362	-1252.04089	-1299.27576	420.78708	-1271.82922	-1454.9613	339.43149	-1262.64294	-1625.7572	223.67972	-1303.22131	-1666.36523	258.47504	-1353.45068	-1639.40869	78.34091	-1334.11145	-1231.28088	1702.58655	-1438.7406	-1973.07483	1023.52295	3101.96191	-2012.42334	1022.06549	3140.83789
3	0.02	-1224.66248	1657.93079	-1528.4967	-1203.50342	1673.00122	-1418.59705	-1335.52222	1605.77014	-1507.07312	-1316.82324	1620.54236	-1390.33264	-1364.81653	1425.18152	-1450.2594	-1408.11792	1134.56946	-1417.9292	-1223.68933	1352.75134	-1450.13806	-1183.97034	1197.50012	-1445.0509	-1423.80908	1238.28174	-1356.26477	-1290.68469	1371.9342	-1609.95569	-1353.40161	1193.42737	-1681.50159	-1396.37585	1047.2627	-1675.37927	-1368.71887	933.84857	-1692.78613	-1298.48792	813.61664	-1669.72754	-1355.33569	813.26202	-1690.13855	-1319.13269	737.16711	-1697.98694	-1282.06396	1394.18567	-1298.81909	-1344.73413	1204.7937	-1183.19727	-1342.07556	1076.54443	-1169.14978	-1267.45154	973.21252	-1155.45471	-1154.1178	903.93799	-1202.27283	-1183.05042	884.36328	-1156.3457	-1112.56677	841.48602	-1166.4342	-1233.09961	933.62067	-1525.63953	-1235.38098	921.13696	-1308.67517	-1421.4397	939.90863	-1472.24805	-1418.71851	932.38074	-1327.42908	-1206.71313	618.87122	-1597.39099	-1190.23499	483.06488	-1587.48267	-1234.68958	297.69678	-1602.34814	-1252.26416	77.30231	-1559.53186	-1291.25537	45.3735	-1503.28796	-1104.93933	39.56563	-1578.06726	-1276.47839	579.70526	-1255.10754	-1274.79016	422.02167	-1274.72729	-1430.35583	341.55948	-1265.80688	-1604.04102	230.51833	-1308.56262	-1643.48303	263.90225	-1361.71948	-1618.3324	84.58202	-1333.11951	-1219.3584	1703.75696	-1442.93909	-1973.11121	1023.39233	3101.92285	-2012.46899	1021.97485	3140.66284
4	0.03	-1212.44116	1658.54126	-1531.99805	-1191.26196	1674.42065	-1422.10718	-1323.34094	1606.60254	-1510.57385	-1305.00195	1622.03418	-1393.88855	-1352.89294	1426.35498	-1453.15125	-1397.12634	1136.02795	-1420.4928	-1211.92993	1353.72351	-1452.04053	-1172.5636	1198.2616	-1446.45581	-1412.64856	1239.81641	-1359.16406	-1278.00537	1372.70251	-1612.25122	-1337.70117	1193.85449	-1684.97742	-1379.16638	1047.23669	-1679.9281	-1349.021	934.49677	-1698.21313	-1276.36499	815.50769	-1675.37231	-1332.96301	813.99292	-1695.98169	-1295.09729	739.10071	-1704.76208	-1270.67578	1395.49524	-1301.20459	-1334.58032	1206.75146	-1185.25342	-1333.90918	1078.27173	-1171.56519	-1261.53101	973.39697	-1156.68921	-1148.87622	901.63885	-1201.66455	-1179.07239	882.70197	-1156.23474	-1109.34314	838.18445	-1165.57068	-1222.60645	934.2926	-1527.64941	-1224.69519	923.07013	-1310.50415	-1410.66919	940.77112	-1474.64343	-1408.29187	932.35846	-1329.90942	-1200.13342	618.72443	-1598.66223	-1185.44128	482.58908	-1588.48035	-1232.69897	297.60443	-1602.35339	-1252.33142	77.46519	-1559.48242	-1291.33923	45.38396	-1503.16296	-1105.06982	39.574	-1578.03918	-1256.79614	581.36365	-1258.16333	-1250.35791	424.07025	-1278.05164	-1406.11096	344.21112	-1268.68359	-1581.31885	236.14276	-1313.99939	-1621.30823	267.86652	-1368.64905	-1593.15674	89.62025	-1333.19934	-1207.21228	1704.85596	-1446.62659	-1973.12378	1023.34131	3101.82129	-2012.48901	1022.08685	3140.677
5	0.04	-1200.04248	1659.20459	-1535.06885	-1179.17395	1675.39709	-1425.30872	-1311.10278	1607.62537	-1513.71191	-1293.04102	1623.59741	-1397.07019	-1341.14294	1427.57422	-1455.73999	-1386.18115	1137.49915	-1422.99658	-1200.20569	1354.79529	-1453.90173	-1161.23706	1199.16577	-1447.88989	-1401.44775	1241.22144	-1362.16028	-1265.42688	1373.63147	-1614.30713	-1322.38269	1194.40515	-1687.96472	-1362.11902	1047.00183	-1684.57166	-1329.22009	935.24756	-1703.17371	-1253.84998	817.98083	-1680.96118	-1310.2738	815.29968	-1701.87683	-1270.47498	741.6615	-1711.547	-1259.65356	1396.88403	-1303.44653	-1324.49426	1208.73816	-1187.03027	-1325.80151	1080.0741	-1173.6991	-1255.96191	973.64923	-1157.47363	-1144.13904	899.48383	-1201.26416	-1175.19116	881.31512	-1156.11926	-1106.48547	834.97559	-1164.82104	-1211.58801	935.4364	-1529.79736	-1214.61255	924.7309	-1312.02563	-1399.87207	941.86926	-1477.02087	-1397.79663	933.20563	-1332.45715	-1193.4032	618.16003	-1600.01587	-1180.41748	482.02298	-1589.56641	-1230.49646	297.45105	-1602.69641	-1252.29004	77.48082	-1559.34583	-1291.63672	45.54084	-1503.20068	-1105.17712	39.62471	-1577.96606	-1237.09143	583.70514	-1261.22339	-1226.14978	426.79749	-1280.76843	-1381.77661	346.99701	-1272.64661	-1557.53015	240.41113	-1318.70422	-1599.68335	270.42444	-1374.24646	-1564.65344	93.91574	-1334.47717	-1194.89978	1706.03589	-1450.08191	-1973.14746	1023.35992	3101.96313	-2012.56311	1022.09155	3140.70215
6	0.05	-1187.50305	1659.88928	-1537.85229	-1166.88354	1676.4679	-1428.12366	-1298.78259	1608.7417	-1516.56494	-1280.96912	1625.12988	-1400.00024	-1329.3938	1428.8396	-1458.17468	-1375.29065	1139.00916	-1425.45764	-1188.58264	1355.76941	-1455.55872	-1149.93347	1200.13049	-1449.29028	-1390.29346	1242.48718	-1365.23853	-1252.9679	1374.67419	-1616.2301	-1307.45349	1195.27722	-1691.03906	-1345.09473	1047.12512	-1689.02246	-1309.1897	936.36682	-1708.29883	-1230.95203	820.96466	-1686.41223	-1287.17236	816.90082	-1707.44165	-1245.36816	744.89795	-1718.2959	-1248.37317	1398.06921	-1305.46448	-1314.54248	1210.67603	-1188.8186	-1317.68152	1082.03467	-1175.50671	-1250.48279	974.09222	-1158.22363	-1139.70325	897.32001	-1200.72205	-1171.69946	879.99139	-1156.16064	-1104.63379	831.50897	-1164.04883	-1200.93152	936.3186	-1531.7406	-1203.89417	926.7644	-1313.70349	-1389.01904	943.04236	-1479.3053	-1387.0968	934.62134	-1334.90979	-1186.43677	617.45679	-1601.38428	-1175.19556	481.34433	-1590.76575	-1227.98267	297.30869	-1603.49609	-1252.26672	77.63888	-1559.40369	-1291.65051	45.71298	-1503.05273	-1105.28979	39.63998	-1578.00476	-1217.56555	586.31976	-1264.04089	-1202.39807	430.19009	-1283.75085	-1357.93079	349.99072	-1276.61755	-1533.44055	243.90187	-1323.66748	-1577.90698	271.52679	-1378.677	-1534.1814	96.97749	-1336.69287	-1182.45093	1707.02478	-1453.08423	-1973.17786	1023.52777	3101.8728	-2012.52954	1022.12573	3140.64038
